<svg xmlns="http://www.w3.org/2000/svg" xmlns:xlink="http://www.w3.org/1999/xlink" width="500" zoomAndPan="magnify" viewBox="0 0 375 374.999991" height="500" preserveAspectRatio="xMidYMid meet" version="1.0"><defs><clipPath id="0c308994f9"><path d="M 142 0 L 356.765625 0 L 356.765625 319 L 142 319 Z M 142 0 " clip-rule="nonzero"/></clipPath><clipPath id="a0b5f8c16f"><path d="M 18.515625 95 L 264 95 L 264 375 L 18.515625 375 Z M 18.515625 95 " clip-rule="nonzero"/></clipPath><clipPath id="95e335a8a4"><path d="M 163 265.3125 L 187.5 265.3125 L 187.5 289.8125 L 163 289.8125 Z M 163 265.3125 " clip-rule="nonzero"/></clipPath><clipPath id="08fd768277"><path d="M 175.25 265.3125 C 168.484375 265.3125 163 270.796875 163 277.5625 C 163 284.328125 168.484375 289.8125 175.25 289.8125 C 182.015625 289.8125 187.5 284.328125 187.5 277.5625 C 187.5 270.796875 182.015625 265.3125 175.25 265.3125 Z M 175.25 265.3125 " clip-rule="nonzero"/></clipPath><clipPath id="aa09e7dbd9"><path d="M 0 0.3125 L 24.5 0.3125 L 24.5 24.8125 L 0 24.8125 Z M 0 0.3125 " clip-rule="nonzero"/></clipPath><clipPath id="e9194e0a78"><path d="M 12.25 0.3125 C 5.484375 0.3125 0 5.796875 0 12.5625 C 0 19.328125 5.484375 24.8125 12.25 24.8125 C 19.015625 24.8125 24.5 19.328125 24.5 12.5625 C 24.5 5.796875 19.015625 0.3125 12.25 0.3125 Z M 12.25 0.3125 " clip-rule="nonzero"/></clipPath><clipPath id="6b71bc55f6"><rect x="0" width="25" y="0" height="25"/></clipPath></defs><g clip-path="url(#0c308994f9)"><path fill="#000000" d="M 356.484375 0.0703125 L 356.484375 318.253906 L 297.96875 318.253906 L 233.167969 221.472656 C 241.679688 216.640625 248.8125 210.8125 254.488281 203.910156 C 261.851562 195.015625 267.140625 185.121094 270.4375 174.234375 C 273.660156 163.34375 275.347656 152.53125 275.347656 141.640625 C 275.347656 127.914062 273.046875 115.566406 268.445312 104.523438 C 265.070312 96.394531 260.546875 89.183594 254.871094 82.820312 C 252.878906 80.519531 250.730469 78.371094 248.351562 76.300781 C 239.535156 68.554688 228.644531 62.496094 215.605469 58.277344 C 202.570312 54.0625 187.769531 51.914062 171.125 51.914062 L 142.90625 51.914062 L 142.90625 0.0703125 Z M 356.484375 0.0703125 " fill-opacity="1" fill-rule="nonzero"/></g><g clip-path="url(#a0b5f8c16f)"><path fill="#5ce1e6" d="M 221.050781 143.480469 C 221.050781 147.316406 220.359375 151.53125 219.058594 155.980469 C 217.753906 160.429688 215.53125 164.722656 212.539062 168.789062 C 212.078125 169.402344 211.542969 170.089844 211.003906 170.707031 C 208.167969 173.925781 204.488281 176.6875 200.039062 178.910156 C 194.746094 181.59375 188.074219 182.898438 180.175781 182.898438 L 142.90625 182.898438 L 142.90625 102.605469 L 180.558594 102.605469 C 189.6875 102.605469 197.046875 104.140625 202.417969 107.285156 C 207.859375 110.425781 211.847656 114.261719 214.53125 118.863281 C 217.21875 123.464844 218.902344 127.988281 219.746094 132.4375 C 220.589844 136.960938 221.050781 140.644531 221.050781 143.480469 Z M 234.089844 318.253906 L 177.875 233.589844 L 142.980469 233.589844 L 142.980469 318.253906 L 90.449219 318.253906 L 90.449219 95.089844 L 18.515625 95.089844 L 18.515625 374.929688 L 263.996094 374.929688 L 263.996094 318.253906 Z M 234.089844 318.253906 " fill-opacity="1" fill-rule="nonzero"/></g><path fill="#38b6ff" d="M 263.996094 318.253906 L 263.996094 374.929688 L 147.125 374.929688 L 90.449219 318.253906 L 142.90625 318.253906 L 142.90625 233.589844 L 177.800781 233.589844 L 234.011719 318.253906 Z M 142.90625 102.605469 L 142.90625 182.898438 L 180.175781 182.898438 C 188.152344 182.898438 194.746094 181.59375 200.039062 178.910156 C 204.488281 176.6875 208.167969 173.925781 211.003906 170.707031 Z M 142.90625 102.605469 " fill-opacity="1" fill-rule="nonzero"/><g clip-path="url(#95e335a8a4)"><g clip-path="url(#08fd768277)"><g transform="matrix(1, 0, 0, 1, 163, 265)"><g clip-path="url(#6b71bc55f6)"><g clip-path="url(#aa09e7dbd9)"><g clip-path="url(#e9194e0a78)"><path fill="#38b6ff" d="M 0 0.3125 L 24.5 0.3125 L 24.5 24.8125 L 0 24.8125 Z M 0 0.3125 " fill-opacity="1" fill-rule="nonzero"/></g></g></g></g></g></g></svg>